# xmcd
#
# Track frame offsets:
#	150
#	10515
#	28940
#	37816
#	52032
#	72355
#	85151
#	99408
#	113204
#	124745
#	139697
#	157429
#
# Disc length: 2331 seconds
#
# Revision: 0
# Processed by: cddbd v1.5.2PL0 Copyright (c) Steve Scherf et al.
# Submitted via: audiograbber 1.83.01
#
DISCID=9e09190c
DTITLE=Presley, Elvis - Elvis Country
DYEAR=1971
DGENRE=Country
TTITLE0=Snowbird
TTITLE1=Tomorrow never comes
TTITLE2=Little cabin on the hill
TTITLE3=Whole lotta shakin' goin' on
TTITLE4=Funny how time slips away
TTITLE5=I really don't want to know
TTITLE6=There goes my everything
TTITLE7=It's your baby, you rock it
TTITLE8=The fool
TTITLE9=Faded love
TTITLE10=I washed my hands in muddy water
TTITLE11=Make the world go away
EXTD=
EXTT0=
EXTT1=
EXTT2=
EXTT3=
EXTT4=
EXTT5=
EXTT6=
EXTT7=
EXTT8=
EXTT9=
EXTT10=
EXTT11=
PLAYORDER=
